<?xml version="1.0" encoding="UTF-8"?>
<svg id="Layer_1" xmlns="http://www.w3.org/2000/svg" viewBox="0 0 704.03 66">
  <path d="M4.23,56.16c.28,0,.57.07.71.07h2.63c.78,0,2.91-.28,3.13-.28.07,0,.99-.5,1.28-.78.21-.21,1.78-1.7,1.99-2.06l1.07-1.56c3.62-9.95,4.69-12.15,5.47-14.49l2.56-7.74c.36-.99,3.27-8.81,3.62-9.88.43-1.14.78-2.42,1-3.55.21-.43.28-1.78.28-1.85l-.5-3.34c-.07-.43-.07-.71-.07-1.07,0-.64.07-1.07.07-1.07,0-.21.36-.64.99-.64.07,0,.5.14.85.85,0,0,.64-.64.99-.71l1.28-.28c.5-.07.43-1.07,1.07-1.07.36,0,.78.21.99.57.36.57.64,1.21.78,1.85.92,2.56,2.2,5.54,3.13,8.24.14.43.92,2.98,1.07,3.34.92,2.7,2.13,4.62,2.63,7.32l1.71,4.33c.57,1.7,5.26,14.92,5.75,16.55.64,1.7,1.35,3.27,2.56,4.69,1.92,2.34,3.13,2.49,5.83,2.49h1.85c.28.07.28.14.28.28v.71c0,.21-.28.28-.57.28h-.64c-1.63-.07-4.48-.07-7.96-.07-6.89,0-15.06.14-15.06.14-.21,0-.28-.07-.28-.36,0-.5,0-.85.43-.85.92,0,3.55-.28,3.69-.28.99-.28,2.27-.36,2.84-.78v-.36c0-1.99-.64-4.48-1.07-6.11-.92-3.41-1.71-5.83-3.27-8.53-.28-.21-.43-.28-.78-.28-.43,0-1.07.07-2.49.07-.71,0-1.56,0-2.7-.07-.64,0-3.84.07-6.39.07h-2.63c-.5.14-.57.71-.85,1.28-.5,1.35-2.13,6.04-2.34,6.68-1.07,3.2-1.28,4.76-1.28,6.61,0,1,1.85,1.42,2.63,1.49h5.26c.14.07.36.21.36.71,0,.14,0,.36-.07.57,0,0-.5.14-.64.14h-1.78s-8.6.21-13.93.21c-1.63,0-2.91,0-3.62-.07h-2.42c-.14,0-.14-1-.14-1.14,0-.21.28-.28.71-.28ZM28.25,20.71c-.64,2.13-4.05,12.08-4.62,14.28-.71,2.42-.28,1.71-.57,2.84h11.94c.5,0,1.28-.14,1.28-.78v-.28l-5.19-14.99c-.64-1.14-.64-2.7-1.85-3.62l-.99,2.56Z"/>
  <path d="M69.81,55.52c.07,0,1.07-.21,1.28-.28,2.49-.71,3.13-4.55,3.34-7.03.28-6.11.36-9.02.36-12.86,0-2.91-.07-6.25-.07-11.94v-10.37c0-.28-.28-1.56-.28-1.78-.28-1.14-1.56-1.35-2.56-1.35h-7.25c-4.41.57-6.89,4.69-8.53,8.31-.14.36-.71.36-.78.36v-1.14c.36-3.62.78-7.11,1.85-10.66.07-.36.5-.99.99-.99,1.71,0,1.28,1.56,2.56,2.06,1.35.07,5.54.21,9.17.21,2.49,0,4.76-.07,5.61-.21,1.71.07,3.13.07,4.33.07,1.49,0,2.7,0,3.77-.07h13.78c1.92,0,2.7-.64,3.13-.99l.07-.07c.14-.07.92-.71.99-.71h.43c.78,0,1.14.5,1.14,1.14,0,1.92-.36,3.91-.5,5.83,0,.85-.28,5.47-.28,6.47h-.07c-.14,0-.36,0-.43-.14,0-.36-.36-1.78-.5-2.13,0-.21-.36-1.35-.5-1.56,0-.21-.36-1.07-.57-1.35,0-.14-.21-.5-.21-.5-3.48-3.91-6.39-4.12-11.44-4.12h-3.34c-.14,0-.92.21-1,.21-.28,0-.78.28-.78.28,0,0-.28.43-.28.5-.43,1.35-.5,2.7-.5,8.95v30.12c.14,1.56.36,3.41,1.28,4.69.99,1.56,1.14.78,7.53,1.28.5,0,.78.57.78.92,0,.14,0,.64-.28.64h-27.43c-.21,0-.43-.57-.43-1.07,0-.36.07-.64.28-.64l5.33-.07Z"/>
  <path d="M112.73,57.44c-2.98,0-4.9.07-5.9.07-.64,0-.78,0-.85-.14,0,0-.07-.36-.07-.57,0-.43.28-.5.64-.5h.71c4.19,0,5.12-1.07,5.12-3.62.21-3.34.43-27,.43-36.02,0-3.77-.21-6.25-1.42-7.18-.57-.43-3.2-.64-3.77-.85-.5-.21-.5-.36-.5-.43,0-.36.28-.64.64-.64,0,0,2.56.07,2.91.07l28.7.14c1.85,0,2.27-1.63,2.98-1.63.36,0,.78.71.78,1.21-1.49,3.69-2.42,6.11-3.06,10.94,0,.07-.21.14-.36.14-.07,0-.28-.07-.36-.14-.92-2.63-.64-6.25-2.77-7.46-3.62-1.35-7.53-1.35-11.44-1.35h-1.71c-.99,0-2.2,0-2.49,1.56-.21.99-.57,3.48-.57,12.43,0,2.56.21,5.61.28,6.25h5.12c1.49,0,3.06,0,4.4-.28,1.49-.99,2.2-4.97,3.77-4.97.64,0,.71,0,.71.85,0,.57-.43,2.27-.43,3.13-.07.92-.14,2.34-.14,4.33,0,.99,0,2.06.07,3.27,0,.43.14.85.21,3.41,0,.14-.5.28-.78.28s-.64-.14-.64-.36c0-2.34-1.14-5.12-2.2-6.39-.71-.78-1.71-.85-2.7-.85h-1.21c-.5,0-6.18.14-6.18.14-.21,0-.28,4.41-.28,5.9s.28,10.16.28,12.43c0,1.92.14,4.69,2.06,4.9h5.68c1.92,0,6.61-.36,6.75-.5l1.21-.43c3.34-1.14,8.1-2.91,9.88-5.26,1.21-1.56,2.7-3.69,3.27-3.69.21,0,.5.14.57.36v.28c0,.36-.21.78-.43,1.28-2.42,3.62-4.62,9.09-5.54,11.58-.21.57-.99,1.07-1.63,1.07-.57,0-.57-.36-.57-.78l.07-.5c0-1.28-.99-1.42-2.56-1.42l-26.71-.07Z"/>
  <path d="M150.89,55.88l5.19-.28c.36,0,2.06-.28,2.34-.28,1.71-.21,1.99-2.27,2.27-3.77.21-1.56.21-2.98.21-4.33,0,0-.21-31.97-.21-35.38-.14-.64-.5-1.63-1.07-2.06-.71-.64-1.78-.71-2.77-.85h-3.06c-.21,0-.36-.57-.36-.71,0-.07,0-.28.28-.36,0,0,19.89-.36,24.16-.36h.64c.28.21.28.5.28.78,0,.5-.07.64-.36.64-.36,0-1.07-.07-1.28-.07-.99,0-4.55.36-4.9.36-2.2.07-2.84.99-3.06,3.2l-.28,2.84v24.37c0,4.26.07,8.45.28,12.86,0,.5.43,1.42.57,1.85.21.36,1.14.78,1.56.78,2.49.36,5.26.5,7.82.5h2.49l4.62-.5c2.34-.28,5.33-2.91,6.54-4.97.85-1.63,1.28-2.91,2.34-4.41h.07c.14,0,.28,0,.43.28.07.07.07.28.07.57,0,2.06-1.56,8.67-1.63,9.31-.14.5-.5,1.92-.5,1.99-.21.28-.71,1.28-.78,1.56-.14.14-.43.5-.92.5-.71,0-.78-.43-.78-.92v-.36c0-.43,0-.78-.43-.99-.07-.14-.57-.28-.78-.28-.57,0-5.04-.14-10.73-.14h-17.48c-3.27,0-6.54.07-10.09.14-.21,0-.85-.36-.99-.5,0,0-.14-.36-.14-.5,0,0,.07-.5.43-.5Z"/>
  <path d="M198.64,55.95c.43-.07.92-.14,1.35-.14h2.34c1.49,0,2.98-.07,4.33-.71,1.28-.71,1.92-3.91,2.06-5.19,0-.57.28-2.7.28-3.13.21-5.04.21-10.16.21-15.42,0-.36,0-1.78-.21-16.84,0-2.2-.78-3.98-.78-3.98,0-.07-.71-.71-.85-.85-1.21-.92-2.42-.64-3.84-.78l-2.56-.07c-.28-.14-.28-.36-.28-.64,0-.21.07-.57.5-.64,0,0,2.7.14,4.26.14h21.1c.78,0,.92.07.92.21,0,0,.07.21.07.5s-.07.5-.28.5h-.28c-.99,0-3.77-.14-5.19-.14h-.64c-2.77.43-4.05,2.42-4.05,6.32v35.31c.21,1.71.43,3.69,1.99,4.69.36.28,1.56.85,2.56.85h5.47c.28,0,.57,0,.57.71,0,.57-.36.64-1.14.64-2.2-.07-5.68-.14-9.38-.14-7.32,0-15.28.14-15.28.14h-3.34c-.21,0-.21-.28-.21-.5,0-.43,0-.71.28-.85Z"/>
  <path d="M238.43,57.44c-2.98,0-4.9.07-5.9.07-.64,0-.78,0-.85-.14,0,0-.07-.36-.07-.57,0-.43.28-.5.64-.5h.71c4.19,0,5.12-1.07,5.12-3.62.21-3.34.43-27,.43-36.02,0-3.77-.21-6.25-1.42-7.18-.57-.43-3.2-.64-3.77-.85-.5-.21-.5-.36-.5-.43,0-.36.28-.64.64-.64,0,0,2.56.07,2.91.07l28.7.14c1.85,0,2.27-1.63,2.98-1.63.36,0,.78.71.78,1.21-1.49,3.69-2.42,6.11-3.06,10.94,0,.07-.21.14-.36.14-.07,0-.28-.07-.36-.14-.92-2.63-.64-6.25-2.77-7.46-3.62-1.35-7.53-1.35-11.44-1.35h-1.71c-.99,0-2.2,0-2.49,1.56-.21.99-.57,3.48-.57,12.43,0,2.56.21,5.61.28,6.25h5.12c1.49,0,3.06,0,4.4-.28,1.49-.99,2.2-4.97,3.77-4.97.64,0,.71,0,.71.85,0,.57-.43,2.27-.43,3.13-.07.92-.14,2.34-.14,4.33,0,.99,0,2.06.07,3.27,0,.43.14.85.21,3.41,0,.14-.5.28-.78.28s-.64-.14-.64-.36c0-2.34-1.14-5.12-2.2-6.39-.71-.78-1.71-.85-2.7-.85h-1.21c-.5,0-6.18.14-6.18.14-.21,0-.28,4.41-.28,5.9s.28,10.16.28,12.43c0,1.92.14,4.69,2.06,4.9h5.68c1.92,0,6.61-.36,6.75-.5l1.21-.43c3.34-1.14,8.1-2.91,9.88-5.26,1.21-1.56,2.7-3.69,3.27-3.69.21,0,.5.14.57.36v.28c0,.36-.21.78-.43,1.28-2.42,3.62-4.62,9.09-5.54,11.58-.21.57-.99,1.07-1.63,1.07-.57,0-.57-.36-.57-.78l.07-.5c0-1.28-.99-1.42-2.56-1.42l-26.71-.07Z"/>
  <path d="M303.23,34c-.07-.14-.57-.92-.78-.99-.21-.28-1.28-1.42-1.56-1.56-.36-.28-1.28-.57-1.49-.57-.78-.28-2.2-.36-3.34-.36-.85,0-1.85.07-1.7.14-.21.43-.28,1.21-.28,1.28,0,.92-.14,5.47-.14,6.47v9.09l.28,5.12c.14,3.27,3.91,2.63,6.18,2.84l2.42.14c.5,0,.71.28.71.92,0,.21-.07.5-.36.64h-2.2c-3.77,0-19.61.07-23.87.43-.07,0-.5-.14-.5-.28v-1.07c0-.07.43-.5.5-.5h4.19c3.77,0,3.98-2.98,4.76-6.25l.43-27.85c0-1.07-.14-6.61-.28-8.1,0-.71-.21-2.13-.78-2.77-.92-1.21-2.91-1.71-4.19-1.71,0,0-3.27.14-3.55.14-.14,0-.78-.14-.78-.28-.07-.14-.07-.92-.07-.92,0-.21.07-.36.28-.36h26.71c.21,0,2.06.36,2.56.5l.92.28c3.13.92,5.9,1.85,7.89,4.62l.57.78c.14.43.5,1.71.5,1.78.07,1.56.21,2.98.21,4.55,0,.71,0,1.56-.14,2.34-.21,2.06-.85,2.42-1.92,3.77-.71.92-.99,1.78-1.78,2.06-.64.57-1.99,1.56-2.13,1.56-.21.14-2.13.21-2.34.21-.28,0-1.14.21-1.35.21l-.21.28.21.21c.28.14,1.42,1.07,1.63,1.14l.57.28c1.78,1.56,3.69,3.48,4.83,5.68,1.78,3.27,2.56,6.61,4.26,9.73,2.13,3.69,5.33,6.04,9.38,6.11.71,0,1.35-.21,2.06-.43.57-.21,1.92-.92,2.42-1.28.57-.36,1.35-.78,1.71-1.35,0,0,.14.14.5.28,0,0-.14.43-.36.64-.07,0-2.27,2.27-3.2,3.06-2.06,1.99-4.83,3.13-7.32,3.13-1.49,0-3.41-.21-4.97-.78-4.41-1.49-7.25-4.4-9.59-8.45,0-.21-.43-1.07-.5-1.35-.57-1.56-2.91-8.53-3.41-10.09-.28-.5-1.28-2.56-1.56-3.13ZM294.21,28.03l.28.28h1.28c1.85,0,3.48,0,5.4-.21,2.34-.28,4.05-1.56,5.68-3.13,0,0,.43-.64.57-.78.85-1.56,1.42-2.91,1.42-4.76,0-2.98-1.21-5.61-3.55-7.39-.5-.43-2.56-1.99-2.84-2.06-.21-.14-1.07-.43-1.42-.43-.71-.28-1.63-.28-2.34-.28l-1.21.07c-.5-.07-.85-.14-1.35-.14h-.71c-.57,0-.57.64-.71,1.07-.5,1.85-.5,3.69-.5,5.61v12.15Z"/>
  <path d="M363.56,20.14c-.36-.57-.5-1.14-.78-1.85-1.28-2.98-2.34-6.39-4.9-8.53,0,0-.5-.21-.71-.21h-.28l-1.56-.28c-.5-.14-2.27-.28-2.34-.28h-2.84c-.64,0-1.07-.43-1.07-.99,0-.21,0-.57.28-.57h27.64c.28,0,.28.57.28.64,0,.28,0,.5-.28.71-.07,0-.99.21-1.28.21h-2.34c-.36,0-2.42.36-2.77.57-.71.36-1.14,1.56-1.14,2.49,0,.5.21,2.27.36,2.56,1.28,3.27,6.96,17.48,8.17,20.68l3.2,8.67c.07.21.07.5.36.5.14,0,.28,0,.43-.28l12.36-27.43c0-.07.57-.64.71-.78h.14c.14,0,.21,0,.43.28.07.21.5,1.78.5,2.06,2.56,9.02,4.83,13.22,7.6,21.32.64,1.99,1.42,4.19,2.49,5.97l.28-.21c.92-2.06,2.7-6.25,6.47-14.42.5-1.56,2.56-6.61,2.77-7.39.21-.21,1.06-3.13,1.35-4.12.5-1.85,1.35-3.98,1.35-5.9v-.43c-.5-1.99-1-3.2-3.13-3.69-.36-.14-1.28-.28-1.28-.28h-5.26c-.21-.21-.21-.57-.21-.92l.36-.5,3.06-.14h21.6c.21,0,.71.71.71.71,0,.36-.57,1.14-.92,1.14l-3.48-.43c-1.71,0-3.62.14-4.69,1.56-1.63,2.34-2.63,5.26-3.91,7.89l-1.07,1.85c-4.12,9.52-7.46,17.69-11.79,27.57-.14.21-1.21,2.27-1.28,2.56l-1.78,4.41c0,.21-.43,1.14-.43,1.21,0,.21-.36,1.21-.36,1.28-.14.28-.71,1.78-1.07,1.99-.28,0-.36,0-.57-.21-.07-.28-.35-1.99-.57-2.2-3.41-8.45-7.18-16.63-9.81-25.36-.28-.5-.78-1.56-.78-1.56h-.28s-.78,1.28-.99,1.85c-4.19,8.81-7.25,15.56-10.8,25.01l-.57,1.63c-.14.36-.28.71-.78.71,0,0-.21-.14-.21-.21-.14-.29-.64-1.42-.78-1.56s-.57-1.71-.57-1.85c-3.2-9.52-13.22-35.38-13.22-35.38Z"/>
  <path d="M443.86,57.44c-2.98,0-4.9.07-5.9.07-.64,0-.78,0-.85-.14,0,0-.07-.36-.07-.57,0-.43.28-.5.64-.5h.71c4.19,0,5.11-1.07,5.11-3.62.21-3.34.43-27,.43-36.02,0-3.77-.21-6.25-1.42-7.18-.57-.43-3.2-.64-3.77-.85-.5-.21-.5-.36-.5-.43,0-.36.28-.64.64-.64,0,0,2.56.07,2.91.07l28.7.14c1.85,0,2.27-1.63,2.98-1.63.35,0,.78.71.78,1.21-1.49,3.69-2.42,6.11-3.06,10.94,0,.07-.21.14-.35.14-.07,0-.29-.07-.36-.14-.92-2.63-.64-6.25-2.77-7.46-3.62-1.35-7.53-1.35-11.44-1.35h-1.7c-1,0-2.2,0-2.49,1.56-.21.99-.57,3.48-.57,12.43,0,2.56.21,5.61.29,6.25h5.11c1.49,0,3.06,0,4.41-.28,1.49-.99,2.2-4.97,3.77-4.97.64,0,.71,0,.71.85,0,.57-.43,2.27-.43,3.13-.07.92-.14,2.34-.14,4.33,0,.99,0,2.06.07,3.27,0,.43.14.85.21,3.41,0,.14-.5.28-.78.28s-.64-.14-.64-.36c0-2.34-1.14-5.12-2.2-6.39-.71-.78-1.71-.85-2.7-.85h-1.21c-.5,0-6.18.14-6.18.14-.21,0-.29,4.41-.29,5.9s.29,10.16.29,12.43c0,1.92.14,4.69,2.06,4.9h5.68c1.92,0,6.61-.36,6.75-.5l1.21-.43c3.34-1.14,8.1-2.91,9.88-5.26,1.21-1.56,2.7-3.69,3.27-3.69.21,0,.5.14.57.36v.28c0,.36-.21.78-.43,1.28-2.42,3.62-4.62,9.09-5.54,11.58-.21.57-1,1.07-1.63,1.07-.57,0-.57-.36-.57-.78l.07-.5c0-1.28-.99-1.42-2.56-1.42l-26.71-.07Z"/>
  <path d="M488.77,55.81c1.71-.14,2.63-1.78,2.84-3.34.21-.57.28-3.27.28-3.91V11.83c0-1.42-.64-2.42-2.06-2.63l-4.4-.21c-.43-.14-.78-.36-.78-.78,0-.5.57-.78,1.07-.78l1.49.14,8.38.21c5.12-.14,9.52-.21,11.51-.36.28.28.35.78.35,1.07,0,.21,0,.5-.28.71h-3.41c-1.28,0-3.2.21-3.34,1.85-.21,2.49-.29,4.97-.29,7.46v11.23c.43,1.28,2.56,1.28,2.63,1.28h23.16s.21-.21.21-.28c.14-.28.21-1.56.21-1.78V12.33c0-1.14-.78-2.7-2.06-2.84h-3.91c-.43,0-1.71-.28-1.85-.28-.07,0-.5-.36-.5-.5v-.21c0-.43.14-.57.5-.78h22.52l2.2-.21c.57,0,.92.85.92,1.21v.28c0,.14-.36.21-.57.21-4.62,0-6.68.21-7.18.28-.78.14-1.78,1.28-1.85,2.06-.14.43-.29,2.27-.29,2.63v35.95l.29,3.62c0,.14.07.36.28.5.21.28.85.92,1,1.07,1.35.36,2.77.36,3.84.36l3.27.21c.29.07.43.5.43.57,0,.92-.78.71-1.56.85h-.57c-.28,0-1.78-.14-2.84-.14l-12.36.07c-2.06,0-4.69.14-7.53.14-.28-.14-.28-.21-.28-.5,0-.92,1.28-1.14,1.92-1.21l4.33-.07c1.28-.5,1.85-2.34,1.85-3.69v-14.71c0-.36-.07-2.34-.29-2.84,0,0-.21-.92-.5-.92h-24.09c-1.07,0-1.35.21-1.35,1.42v17.83c0,.21.57,1.71.78,2.13.5.43,1,1.07,1.92,1.07h.92s1.28-.07,2.34-.07c.36,0,.64,0,.92.07.21.07.21.71.21.71,0,.14-.07.57-.07.57,0,.07-.64.21-.78.21-.21,0-1.85-.07-4.05-.07-6.75,0-19.33.14-19.33.14-.21-.07-.35-.5-.35-.92,0-.28.07-.57.21-.57.92,0,5.04,0,5.9-.14Z"/>
  <path d="M575.95,34c-.07-.14-.57-.92-.78-.99-.21-.28-1.28-1.42-1.56-1.56-.36-.28-1.28-.57-1.49-.57-.78-.28-2.2-.36-3.34-.36-.85,0-1.85.07-1.71.14-.21.43-.28,1.21-.28,1.28,0,.92-.14,5.47-.14,6.47v9.09l.28,5.12c.14,3.27,3.91,2.63,6.18,2.84l2.42.14c.5,0,.71.28.71.92,0,.21-.07.5-.35.64h-2.2c-3.77,0-19.61.07-23.87.43-.07,0-.5-.14-.5-.28v-1.07c0-.07.43-.5.5-.5h4.19c3.77,0,3.98-2.98,4.76-6.25l.43-27.85c0-1.07-.14-6.61-.28-8.1,0-.71-.21-2.13-.78-2.77-.92-1.21-2.91-1.71-4.19-1.71,0,0-3.27.14-3.55.14-.14,0-.78-.14-.78-.28-.07-.14-.07-.92-.07-.92,0-.21.07-.36.28-.36h26.71c.21,0,2.06.36,2.56.5l.92.28c3.13.92,5.9,1.85,7.89,4.62l.57.78c.14.43.5,1.71.5,1.78.07,1.56.21,2.98.21,4.55,0,.71,0,1.56-.14,2.34-.21,2.06-.85,2.42-1.92,3.77-.71.92-.99,1.78-1.78,2.06-.64.57-1.99,1.56-2.13,1.56-.21.14-2.13.21-2.34.21-.28,0-1.14.21-1.35.21l-.21.28.21.21c.29.14,1.42,1.07,1.63,1.14l.57.28c1.78,1.56,3.7,3.48,4.83,5.68,1.78,3.27,2.56,6.61,4.26,9.73,2.13,3.69,5.33,6.04,9.38,6.11.71,0,1.35-.21,2.06-.43.57-.21,1.92-.92,2.42-1.28.57-.36,1.35-.78,1.71-1.35,0,0,.14.14.5.28,0,0-.14.43-.36.64-.07,0-2.27,2.27-3.2,3.06-2.06,1.99-4.83,3.13-7.32,3.13-1.49,0-3.41-.21-4.97-.78-4.4-1.49-7.25-4.4-9.59-8.45,0-.21-.43-1.07-.5-1.35-.57-1.56-2.91-8.53-3.41-10.09-.28-.5-1.28-2.56-1.56-3.13ZM566.93,28.03l.29.28h1.28c1.85,0,3.48,0,5.4-.21,2.34-.28,4.05-1.56,5.68-3.13,0,0,.43-.64.57-.78.85-1.56,1.42-2.91,1.42-4.76,0-2.98-1.21-5.61-3.55-7.39-.5-.43-2.56-1.99-2.84-2.06-.21-.14-1.07-.43-1.42-.43-.71-.28-1.63-.28-2.34-.28l-1.21.07c-.5-.07-.85-.14-1.35-.14h-.71c-.57,0-.57.64-.71,1.07-.5,1.85-.5,3.69-.5,5.61v12.15Z"/>
  <path d="M608.36,55.88l5.19-.28c.35,0,2.06-.28,2.34-.28,1.7-.21,1.99-2.27,2.27-3.77.21-1.56.21-2.98.21-4.33,0,0-.21-31.97-.21-35.38-.14-.64-.5-1.63-1.07-2.06-.71-.64-1.78-.71-2.77-.85h-3.06c-.21,0-.35-.57-.35-.71,0-.07,0-.28.28-.36,0,0,19.89-.36,24.16-.36h.64c.29.21.29.5.29.78,0,.5-.07.64-.36.64-.36,0-1.07-.07-1.28-.07-.99,0-4.55.36-4.9.36-2.2.07-2.84.99-3.06,3.2l-.28,2.84v24.37c0,4.26.07,8.45.28,12.86,0,.5.43,1.42.57,1.85.21.36,1.14.78,1.56.78,2.49.36,5.26.5,7.82.5h2.49l4.62-.5c2.34-.28,5.33-2.91,6.54-4.97.85-1.63,1.28-2.91,2.34-4.41h.07c.14,0,.28,0,.43.28.07.07.07.28.07.57,0,2.06-1.56,8.67-1.63,9.31-.14.5-.5,1.92-.5,1.99-.21.28-.71,1.28-.78,1.56-.14.14-.43.5-.92.5-.71,0-.78-.43-.78-.92v-.36c0-.43,0-.78-.43-.99-.07-.14-.57-.28-.78-.28-.57,0-5.04-.14-10.73-.14h-17.48c-3.27,0-6.54.07-10.09.14-.21,0-.85-.36-1-.5,0,0-.14-.36-.14-.5,0,0,.07-.5.43-.5Z"/>
  <path d="M663.14,57.44c-2.98,0-4.9.07-5.9.07-.64,0-.78,0-.85-.14,0,0-.07-.36-.07-.57,0-.43.28-.5.64-.5h.71c4.19,0,5.11-1.07,5.11-3.62.21-3.34.43-27,.43-36.02,0-3.77-.21-6.25-1.42-7.18-.57-.43-3.2-.64-3.77-.85-.5-.21-.5-.36-.5-.43,0-.36.28-.64.64-.64,0,0,2.56.07,2.91.07l28.7.14c1.85,0,2.27-1.63,2.98-1.63.35,0,.78.71.78,1.21-1.49,3.69-2.42,6.11-3.06,10.94,0,.07-.21.14-.35.14-.07,0-.29-.07-.36-.14-.92-2.63-.64-6.25-2.77-7.46-3.62-1.35-7.53-1.35-11.44-1.35h-1.7c-1,0-2.2,0-2.49,1.56-.21.99-.57,3.48-.57,12.43,0,2.56.21,5.61.29,6.25h5.11c1.49,0,3.06,0,4.41-.28,1.49-.99,2.2-4.97,3.77-4.97.64,0,.71,0,.71.85,0,.57-.43,2.27-.43,3.13-.07.92-.14,2.34-.14,4.33,0,.99,0,2.06.07,3.27,0,.43.14.85.21,3.41,0,.14-.5.28-.78.28s-.64-.14-.64-.36c0-2.34-1.14-5.12-2.2-6.39-.71-.78-1.71-.85-2.7-.85h-1.21c-.5,0-6.18.14-6.18.14-.21,0-.29,4.41-.29,5.9s.29,10.16.29,12.43c0,1.92.14,4.69,2.06,4.9h5.68c1.92,0,6.61-.36,6.75-.5l1.21-.43c3.34-1.14,8.1-2.91,9.88-5.26,1.21-1.56,2.7-3.69,3.27-3.69.21,0,.5.14.57.36v.28c0,.36-.21.78-.43,1.28-2.42,3.62-4.62,9.09-5.54,11.58-.21.57-1,1.07-1.63,1.07-.57,0-.57-.36-.57-.78l.07-.5c0-1.28-.99-1.42-2.56-1.42l-26.71-.07Z"/>
</svg>