<?xml version="1.0" encoding="UTF-8"?>
<svg id="Layer_1" xmlns="http://www.w3.org/2000/svg" viewBox="0 0 512 512">
  <path d="M102.95,184.03c-1.93-3.09-2.71-6.19-4.26-10.06-6.97-16.25-12.77-34.83-26.7-46.44,0,0-2.71-1.16-3.87-1.16h-1.55l-8.52-1.55c-2.71-.77-12.38-1.55-12.77-1.55h-15.48c-3.48,0-5.8-2.32-5.8-5.42,0-1.16,0-3.1,1.55-3.1h150.53c1.55,0,1.55,3.1,1.55,3.48,0,1.55,0,2.71-1.55,3.87-.38,0-5.42,1.16-6.96,1.16h-12.77c-1.93,0-13.16,1.93-15.09,3.09-3.87,1.93-6.19,8.51-6.19,13.54,0,2.71,1.16,12.38,1.93,13.93,6.97,17.8,37.92,95.19,44.5,112.61l17.41,47.21c.39,1.16.39,2.71,1.93,2.71.78,0,1.55,0,2.32-1.55l67.33-149.37c0-.38,3.09-3.48,3.87-4.26h.77c.78,0,1.16,0,2.32,1.55.39,1.16,2.71,9.67,2.71,11.22,13.93,49.14,26.31,71.98,41.4,116.09,3.48,10.83,7.74,22.83,13.55,32.5l1.55-1.16c5.03-11.22,14.7-34.05,35.21-78.55,2.71-8.52,13.93-35.99,15.09-40.25,1.16-1.16,5.8-17.03,7.35-22.44,2.71-10.06,7.35-21.67,7.35-32.12v-2.32c-2.71-10.84-5.42-17.41-17.02-20.12-1.94-.78-6.97-1.55-6.97-1.55h-28.64c-1.16-1.16-1.16-3.09-1.16-5.03l1.94-2.71,16.64-.77h117.64c1.16,0,3.87,3.87,3.87,3.87,0,1.93-3.09,6.19-5.03,6.19l-18.96-2.32c-9.29,0-19.74.77-25.54,8.51-8.9,12.77-14.32,28.64-21.28,42.95l-5.8,10.06c-22.44,51.85-40.63,96.36-64.23,150.14-.78,1.16-6.58,12.38-6.97,13.93l-9.67,23.99c0,1.16-2.32,6.19-2.32,6.58,0,1.16-1.94,6.58-1.94,6.97-.78,1.55-3.87,9.67-5.8,10.83-1.55,0-1.94,0-3.1-1.16-.38-1.55-1.93-10.83-3.09-11.99-18.58-46.05-39.09-90.55-53.4-138.15-1.55-2.71-4.26-8.52-4.26-8.52h-1.55s-4.26,6.97-5.42,10.06c-22.83,47.99-39.47,84.75-58.82,136.21l-3.09,8.9c-.77,1.94-1.55,3.87-4.26,3.87,0,0-1.16-.77-1.16-1.15-.77-1.55-3.48-7.74-4.26-8.52-.78-.78-3.09-9.29-3.09-10.06-17.41-51.85-71.98-192.71-71.98-192.71Z"/>
  <rect x="213.03" y="310.12" width="92.34" height="17.16"/>
</svg>