<?xml version="1.0" standalone="no"?>
<!DOCTYPE svg PUBLIC "-//W3C//DTD SVG 20010904//EN"
 "http://www.w3.org/TR/2001/REC-SVG-20010904/DTD/svg10.dtd">
<svg version="1.0" xmlns="http://www.w3.org/2000/svg"
 width="700.000000pt" height="700.000000pt" viewBox="0 0 700.000000 700.000000"
 preserveAspectRatio="xMidYMid meet">
<metadata>
Created by potrace 1.14, written by Peter Selinger 2001-2017
</metadata>
<g transform="translate(0.000000,700.000000) scale(0.100000,-0.100000)"
fill="#000000" stroke="none">
<path d="M337 5423 c-14 -14 -6 -64 13 -83 24 -24 7 -22 170 -25 150 -2 220
-9 329 -31 40 -8 75 -13 78 -10 12 11 83 -36 123 -81 91 -103 150 -211 260
-479 33 -82 72 -174 85 -204 50 -116 746 -1942 759 -1995 2 -5 6 -17 9 -25 37
-88 216 -602 242 -694 19 -68 91 -216 104 -216 28 0 43 19 67 83 162 437 327
846 345 858 5 3 244 5 532 5 l522 -1 162 -390 c168 -402 179 -432 197 -530 7
-42 49 -47 70 -7 29 54 48 98 67 162 11 36 24 74 28 85 5 11 39 99 76 195 56
145 156 366 222 493 8 15 11 27 7 27 -3 0 -2 6 4 13 6 6 105 235 221 507 116
272 215 504 220 515 5 11 16 36 24 55 200 475 360 840 392 895 23 39 74 144
114 235 134 303 207 427 280 476 74 48 211 68 361 50 36 -4 94 -11 130 -15 63
-8 65 -7 92 22 34 35 34 46 7 81 l-21 27 -919 -3 c-825 -3 -920 -5 -934 -19
-17 -16 -24 -74 -11 -86 4 -4 98 -8 209 -8 345 -2 436 -43 497 -225 24 -70 25
-145 4 -247 -22 -102 -150 -520 -199 -648 -25 -66 -80 -209 -121 -318 -41
-108 -125 -306 -185 -440 -61 -133 -167 -370 -236 -527 -69 -157 -131 -291
-138 -298 -10 -11 -17 -6 -37 31 -38 67 -91 197 -143 347 -70 203 -151 423
-278 750 -63 162 -145 387 -183 500 -72 218 -77 232 -79 240 0 3 -10 37 -22
75 -11 39 -28 104 -37 146 -11 47 -24 84 -37 94 -18 18 -20 17 -45 -6 -31 -28
-53 -74 -321 -674 -42 -94 -61 -135 -111 -245 -25 -55 -200 -442 -237 -525
-14 -33 -36 -80 -47 -105 -11 -25 -29 -63 -38 -85 -10 -22 -29 -65 -43 -95
-14 -30 -45 -100 -70 -155 -87 -193 -97 -213 -112 -218 -21 -9 -9 -37 -160
373 -104 282 -211 560 -368 955 -85 215 -194 489 -241 610 -48 121 -94 236
-102 255 -36 87 -45 250 -18 316 40 97 112 123 364 129 74 2 147 8 162 14 30
11 44 46 33 80 l-6 21 -1038 0 c-571 0 -1041 -3 -1044 -7z m3306 -2023 c47
-140 119 -340 160 -445 l74 -190 -425 -3 c-234 -1 -427 -1 -429 1 -2 2 44 109
103 238 110 244 137 301 236 509 33 69 69 143 79 166 11 23 29 51 41 64 l21
23 28 -54 c14 -30 65 -169 112 -309z"/>
</g>
</svg>
